<?xml version="1.0" standalone="no"?><!DOCTYPE svg PUBLIC "-//W3C//DTD SVG 1.1//EN" "http://www.w3.org/Graphics/SVG/1.1/DTD/svg11.dtd"><svg t="1560526772201" class="icon" style="" viewBox="0 0 1024 1024" version="1.1" xmlns="http://www.w3.org/2000/svg" p-id="1977" xmlns:xlink="http://www.w3.org/1999/xlink" width="200" height="200"><defs><style type="text/css"></style></defs><path d="M496.398222 129.292929l0 147.105616-323.635717 0L172.762505 129.292929z" fill="#29C287" p-id="1978"></path><path d="M894.249374 335.614707l0 147.106909-676.692041 1e-8L217.557333 335.614707z" fill="#706EE7" p-id="1979"></path><path d="M614.085818 541.191758l0 147.105616-441.323313 0L172.762505 541.191758z" fill="#29C287" p-id="1980"></path><path d="M732.661657 129.292929l0 147.104324-235.37389899 0L497.287758 129.292929z" fill="#706EE7" p-id="1981"></path><path d="M614.575838 335.616l0 147.10561601L173.252525 482.721616 173.252525 335.616z" fill="#29C287" p-id="1982"></path><path d="M682.640808 540.902141L682.640808 688.006465l-235.373899 0L447.266909 540.902141z" fill="#706EE7" p-id="1983"></path><path d="M612.822626 745.015596L612.822626 892.121212l-441.323313 0L171.499313 745.015596z" fill="#29C287" p-id="1984"></path><path d="M692.984242 745.015596l1e-8 147.104323-235.37389901 0L457.610343 745.01559599z" fill="#706EE7" p-id="1985"></path></svg>