<?xml version="1.0" standalone="no"?><!DOCTYPE svg PUBLIC "-//W3C//DTD SVG 1.1//EN" "http://www.w3.org/Graphics/SVG/1.1/DTD/svg11.dtd"><svg t="1605929976774" class="icon" viewBox="0 0 1024 1024" version="1.1" xmlns="http://www.w3.org/2000/svg" p-id="3671" xmlns:xlink="http://www.w3.org/1999/xlink" width="200" height="200"><defs><style type="text/css"></style></defs><path d="M768 256m-64 0a64 64 0 1 0 128 0 64 64 0 1 0-128 0Z" fill="#8a8a8a" p-id="3672" data-spm-anchor-id="a313x.7781069.0.i10" class=""></path><path d="M640 384m-64 0a64 64 0 1 0 128 0 64 64 0 1 0-128 0Z" fill="#cdcdcd" p-id="3673" data-spm-anchor-id="a313x.7781069.0.i8" class=""></path><path d="M352 448m-64 0a64 64 0 1 0 128 0 64 64 0 1 0-128 0Z" fill="#8a8a8a" p-id="3674" data-spm-anchor-id="a313x.7781069.0.i13" class=""></path><path d="M448 288m-64 0a64 64 0 1 0 128 0 64 64 0 1 0-128 0Z" fill="#8a8a8a" p-id="3675" data-spm-anchor-id="a313x.7781069.0.i12" class=""></path><path d="M480 576m-64 0a64 64 0 1 0 128 0 64 64 0 1 0-128 0Z" fill="#8a8a8a" p-id="3676" data-spm-anchor-id="a313x.7781069.0.i14" class=""></path><path d="M288 832m-64 0a64 64 0 1 0 128 0 64 64 0 1 0-128 0Z" fill="#8a8a8a" p-id="3677" data-spm-anchor-id="a313x.7781069.0.i15" class=""></path><path d="M224 608m-64 0a64 64 0 1 0 128 0 64 64 0 1 0-128 0Z" fill="#cdcdcd" p-id="3678" data-spm-anchor-id="a313x.7781069.0.i7" class=""></path><path d="M672 608m-64 0a64 64 0 1 0 128 0 64 64 0 1 0-128 0Z" fill="#cdcdcd" p-id="3679" data-spm-anchor-id="a313x.7781069.0.i4" class=""></path><path d="M544 768m-64 0a64 64 0 1 0 128 0 64 64 0 1 0-128 0Z" fill="#cdcdcd" p-id="3680" data-spm-anchor-id="a313x.7781069.0.i6" class=""></path><path d="M832 512m-64 0a64 64 0 1 0 128 0 64 64 0 1 0-128 0Z" fill="#8a8a8a" p-id="3681" data-spm-anchor-id="a313x.7781069.0.i11" class=""></path><path d="M800 832m-64 0a64 64 0 1 0 128 0 64 64 0 1 0-128 0Z" fill="#cdcdcd" p-id="3682" data-spm-anchor-id="a313x.7781069.0.i5" class=""></path><path d="M192 256m-64 0a64 64 0 1 0 128 0 64 64 0 1 0-128 0Z" fill="#cdcdcd" p-id="3683" data-spm-anchor-id="a313x.7781069.0.i9" class=""></path></svg>