<?xml version="1.0" standalone="no"?><!DOCTYPE svg PUBLIC "-//W3C//DTD SVG 1.1//EN" "http://www.w3.org/Graphics/SVG/1.1/DTD/svg11.dtd"><svg t="1605929895983" class="icon" viewBox="0 0 1024 1024" version="1.1" xmlns="http://www.w3.org/2000/svg" p-id="2285" xmlns:xlink="http://www.w3.org/1999/xlink" width="200" height="200"><defs><style type="text/css"></style></defs><path d="M768 256m-64 0a64 64 0 1 0 128 0 64 64 0 1 0-128 0Z" fill="#4A8BFE" p-id="2286"></path><path d="M640 384m-64 0a64 64 0 1 0 128 0 64 64 0 1 0-128 0Z" fill="#3BD5B3" p-id="2287"></path><path d="M352 448m-64 0a64 64 0 1 0 128 0 64 64 0 1 0-128 0Z" fill="#4A8BFE" p-id="2288"></path><path d="M448 288m-64 0a64 64 0 1 0 128 0 64 64 0 1 0-128 0Z" fill="#4A8BFE" p-id="2289"></path><path d="M480 576m-64 0a64 64 0 1 0 128 0 64 64 0 1 0-128 0Z" fill="#4A8BFE" p-id="2290"></path><path d="M288 832m-64 0a64 64 0 1 0 128 0 64 64 0 1 0-128 0Z" fill="#4A8BFE" p-id="2291"></path><path d="M224 608m-64 0a64 64 0 1 0 128 0 64 64 0 1 0-128 0Z" fill="#3BD5B3" p-id="2292"></path><path d="M672 608m-64 0a64 64 0 1 0 128 0 64 64 0 1 0-128 0Z" fill="#3BD5B3" p-id="2293"></path><path d="M544 768m-64 0a64 64 0 1 0 128 0 64 64 0 1 0-128 0Z" fill="#3BD5B3" p-id="2294"></path><path d="M832 512m-64 0a64 64 0 1 0 128 0 64 64 0 1 0-128 0Z" fill="#4A8BFE" p-id="2295"></path><path d="M800 832m-64 0a64 64 0 1 0 128 0 64 64 0 1 0-128 0Z" fill="#3BD5B3" p-id="2296"></path><path d="M192 256m-64 0a64 64 0 1 0 128 0 64 64 0 1 0-128 0Z" fill="#3BD5B3" p-id="2297"></path></svg>